<svg width="64" height="64" viewBox="0 0 64 64" fill="none" xmlns="http://www.w3.org/2000/svg">
  <!-- Fond doré -->
  <rect width="64" height="64" fill="#D4AF37" rx="8"/>
  
  <!-- Cube isométrique - Face avant gauche (vert foncé) -->
  <path d="M32 12 L12 24 L12 44 L32 56 Z" fill="#1A5F5F" stroke="#D4AF37" stroke-width="1.5"/>
  
  <!-- Cube isométrique - Face avant droite (vert-teal) -->
  <path d="M32 12 L52 24 L52 44 L32 56 Z" fill="#2D7F7F" stroke="#D4AF37" stroke-width="1.5"/>
  
  <!-- Cube isométrique - Face supérieure (vert moyen) -->
  <path d="M32 12 L52 24 L32 32 L12 24 Z" fill="#236B6B" stroke="#D4AF37" stroke-width="1.5"/>
  
  <!-- Poignée de main stylisée au centre -->
  <g transform="translate(24, 32)">
    <!-- Main gauche -->
    <path d="M2 4 L4 2 L6 4 L6 8 L4 10 L2 8 Z" fill="#D4AF37"/>
    <!-- Main droite -->
    <path d="M10 4 L12 2 L14 4 L14 8 L12 10 L10 8 Z" fill="#D4AF37"/>
    <!-- Poignée -->
    <ellipse cx="8" cy="6" rx="3" ry="2" fill="#D4AF37"/>
  </g>
  
  <!-- Texture marbrée (effet subtil) -->
  <defs>
    <pattern id="marble" patternUnits="userSpaceOnUse" width="8" height="8">
      <path d="M0,4 Q4,2 8,4" stroke="#D4AF37" stroke-width="0.3" fill="none" opacity="0.3"/>
    </pattern>
  </defs>
  <rect x="12" y="24" width="20" height="32" fill="url(#marble)" opacity="0.3"/>
  <rect x="32" y="24" width="20" height="32" fill="url(#marble)" opacity="0.2"/>
</svg>

